<svg width="32" height="32" viewBox="0 0 32 32" fill="none" xmlns="http://www.w3.org/2000/svg">
<path d="M10.517 26V8.54545H17.4034C18.7273 8.54545 19.8551 8.7983 20.7869 9.30398C21.7188 9.80398 22.429 10.5 22.9176 11.392C23.4119 12.2784 23.6591 13.3011 23.6591 14.4602C23.6591 15.6193 23.4091 16.642 22.9091 17.5284C22.4091 18.4148 21.6847 19.1051 20.7358 19.5994C19.7926 20.0937 18.6506 20.3409 17.3097 20.3409H12.9205V17.3835H16.7131C17.4233 17.3835 18.0085 17.2614 18.4688 17.017C18.9347 16.767 19.2813 16.4233 19.5085 15.9858C19.7415 15.5426 19.858 15.0341 19.858 14.4602C19.858 13.8807 19.7415 13.375 19.5085 12.9432C19.2813 12.5057 18.9347 12.1676 18.4688 11.929C18.0028 11.6847 17.4119 11.5625 16.696 11.5625H14.2074V26H10.517Z" fill="white"/>
</svg>
